<?xml version="1.0" encoding="UTF-8"?>
<svg viewBox="0 0 70 96" version="1.1" xmlns="http://www.w3.org/2000/svg" xmlns:xlink="http://www.w3.org/1999/xlink">

    <defs>
        <ellipse id="path-1" cx="20.2104297" cy="9.83051139" rx="19.8134761" ry="8.61538462"></ellipse>
        <path d="M15.1679379,1.49662011 C15.1219054,1.69862712 15.0592059,1.89961772 14.9791219,2.09790263 C14.6649811,2.87570418 14.1094969,3.53214719 13.3943942,3.97065357 L11.1322061,5.35784442 C8.36694668,7.05352234 6.49476299,9.88691433 6.01939422,13.0956536 C5.55338194,16.2412364 3.48721244,18.9191059 0.562724783,20.1677976 L0.375074889,20.24792 L0.375074889,10 L0.400711176,10 C0.398209936,9.94363471 0.396953586,9.88713685 0.396953586,9.83051139 C0.396953586,5.83005656 6.66750684,2.46643098 15.1679353,1.49662041 Z" id="path-3"></path>
        <path d="M0.800776248,9.47605811 C0.797190769,9.41475398 0.795389089,9.35329238 0.795389089,9.29167971 C0.795389089,4.53353418 11.5405551,0.6762951 24.7953891,0.6762951 C38.0502231,0.6762951 48.7953891,4.53353418 48.7953891,9.29167971 C48.7953891,9.314457 48.7951429,9.33721365 48.7946513,9.35994932 C48.7982009,9.42207779 48.8,9.48467501 48.8,9.54769244 L48.8,43.8735032 C48.8,45.021311 48.5530081,46.1556794 48.0757958,47.1995813 L45.6,52.6153846 L4,52.6153846 L1.5242042,47.1995813 C1.0469919,46.1556794 0.8,45.021311 0.8,43.8735032 L0.8,9.54769244 C0.8,9.5237528 0.800259637,9.4998738 0.800776248,9.47605811 Z" id="path-5"></path>
    </defs>
    <g id="M---Navigation-extra-outils" stroke="none" stroke-width="1" fill="none" fill-rule="evenodd">
        <g id="HelpCenterHP" transform="translate(-41.000000, -665.000000)">
            <g id="Group-21-Copy-2" transform="translate(70.683013, 716.816987) rotate(30.000000) translate(-70.683013, -716.816987) translate(45.183013, 662.316987)">
                <g id="Group-9" transform="translate(4.800000, -0.000000)">
                    <mask id="mask-2" fill="white">
                        <use xlink:href="#path-1"></use>
                    </mask>
                    <use id="Mask-Copy-3" fill="#FFC2C2" xlink:href="#path-1"></use>
                    <rect id="Rectangle-12-Copy-2" fill="#FFC2C2" x="0.375074889" y="10" width="39.6269522" height="43.2189349"></rect>
                    <mask id="mask-4" fill="white">
                        <use xlink:href="#path-3"></use>
                    </mask>
                    <use id="Combined-Shape" fill="#FFD6D6" xlink:href="#path-3"></use>
                </g>
                <g id="Group-20" transform="translate(0.200000, 10.000000)">
                    <path d="M0.831053151,12 C0.828023407,11.9436347 0.826501595,11.8871368 0.826501595,11.8305114 C0.826501595,7.07236585 11.5716676,3.21512677 24.8265016,3.21512677 C38.0813356,3.21512677 48.8265016,7.07236585 48.8265016,11.8305114 C48.8265016,11.9674447 48.8176023,12.1036318 48.8,12.2390023 L48.8,55.2189349 L0.8,55.2189349 L0.8,12 L0.831053151,12 Z" id="Combined-Shape" fill="#E9E9E9"></path>
                    <g id="Path-10-Copy" transform="translate(-0.000000, 1.692308)">
                        <g id="Rectangle-49" transform="translate(0.000000, 8.000000)">
                            <mask id="mask-6" fill="white">
                                <use xlink:href="#path-5"></use>
                            </mask>
                            <use id="Mask" fill="#26C0FF" xlink:href="#path-5"></use>
                            <polygon fill="#000000" opacity="0.0412454044" mask="url(#mask-6)" points="34 -8.3237049 65.5153903 -8.3237049 65.5153903 63.6762951 34 63.6762951"></polygon>
                            <polygon id="Rectangle-49-Copy" fill="#FFFFFF" opacity="0.114774816" mask="url(#mask-6)" points="-14 -8.3237049 17.5153903 -8.3237049 17.5153903 63.6762951 -14 63.6762951"></polygon>
                        </g>
                    </g>
                </g>
                <g id="Path-10" transform="translate(1.000000, 25.076923)"></g>
                <path d="M30.6003968,98.049124 C40.7334656,83.1798191 45.8,74.5993419 45.8,72.3076923 C45.8,68.144315 36.4875228,64.7692308 25,64.7692308 C13.5124772,64.7692308 4.2,68.144315 4.2,72.3076923 C4.2,74.5763942 8.49883921,83.0086068 17.0965176,97.6043301 L17.0965153,97.6043314 C19.3389888,101.411234 24.242977,102.679454 28.0498794,100.436981 C29.0655994,99.838666 29.9365397,99.0232705 30.6003968,98.049124 Z" id="Oval-14" fill="#FDEADE"></path>
                <path d="M26.3942354,104.124693 C26.4318975,104.070125 26.4680327,104.017765 26.5026409,103.967613 C27.810225,102.072748 28.8082759,100.623453 29.4967937,99.6197275 C32.142461,95.7628563 15.9862674,95.6986458 18.2868796,99.5731992 C18.8859085,100.582048 19.7544277,102.039012 20.8924371,103.944092 C20.8924371,103.944092 20.8924371,103.944092 20.8924371,103.944092 L20.8924371,103.944092 C21.8191448,105.495443 23.8280082,106.001816 25.3793591,105.075109 C25.7818451,104.834682 26.127963,104.510567 26.3942712,104.124718 Z" id="Oval-14-Copy-2" fill="#8E8E8E"></path>
                <g id="Group-23" opacity="0.115846549" transform="translate(3.133333, 28.615385)" fill="#FFFFFF">
                    <ellipse id="Oval-9-Copy-5" opacity="0.996793377" cx="6.3663501" cy="7.03040037" rx="5.07842852" ry="6.21103872"></ellipse>
                    <ellipse id="Oval-9-Copy-4" fill-opacity="0.709999979" cx="2.6648466" cy="20.6144383" rx="1.88673465" ry="2.82030798"></ellipse>
                </g>
            </g>
        </g>
    </g>
</svg>