<?xml version="1.0" encoding="UTF-8"?>
<svg viewBox="0 0 76 85" version="1.1" xmlns="http://www.w3.org/2000/svg" xmlns:xlink="http://www.w3.org/1999/xlink">

    <g id="M---Navigation-extra-outils" stroke="none" stroke-width="1" fill="none" fill-rule="evenodd">
        <g id="HelpCenterHP" transform="translate(-19.000000, -1162.000000)" fill-rule="nonzero">
            <g id="megaphone-(1)" transform="translate(19.000000, 1162.000000)">
                <path d="M22.6650578,59.248373 L35.7022667,55.1302579 C37.1656889,59.1156448 33.6403022,60.3776587 34.3053867,65.2928175 C34.5713867,67.1526984 35.9682667,66.6212798 36.7664356,68.6803373 L36.9660622,73.7283929 L41.1565333,77.0494643 C41.7552444,78.6435516 39.7596533,80.5034325 39.7596533,80.5034325 C39.7596533,80.5034325 35.3695556,85.4850397 32.2432533,84.9537897 C27.8533244,84.2896429 22.6650578,59.248373 22.6650578,59.248373 Z" id="Shape" fill="#26C0FF"></path>
                <path d="M34.3053867,65.2928175 C33.7066756,60.5768353 36.7664356,59.248373 35.8351822,55.7279563 L27.72024,57.6542857 L22.6650578,59.248373 C22.6650578,59.248373 22.7981422,59.9789683 23.1306844,61.2409821 L34.5715556,66.0234127 C34.4384711,65.8242361 34.3719289,65.6248909 34.3053867,65.2928175 Z" id="Shape" fill="#22A2D7"></path>
                <path d="M5.10483556,37.0632044 L12.1556089,34.5391766 C12.2221511,37.5281746 13.4194044,42.6426786 15.4813689,48.2886012 C17.5433333,53.8680754 20.0045511,58.5176091 21.9999733,60.8424603 L14.9492,63.3664881 C10.1600178,65.0934722 4.10704,60.5766667 1.37982222,53.3366567 C-1.34739556,46.0303671 0.315653333,38.7901885 5.10483556,37.0632044 Z" id="Shape" fill="#26C0FF"></path>
                <path d="M52.6639467,34.8049702 C47.0100533,19.5941865 45.1475467,5.91121032 48.0078489,2.19161706 C47.6087644,2.59013889 47.1431378,3.12155754 46.6109689,3.91860119 C41.8883289,10.8929861 33.9728444,25.9044246 6.83425778,35.6021825 L6.83425778,35.668631 C5.17137778,36.266498 6.10263111,42.9086409 8.89622222,50.4144444 C11.6899822,57.9865278 15.2817422,63.6324504 16.9446222,63.034752 C44.0832089,53.336994 60.0470933,60.045754 68.29512,62.3706052 C70.8892533,63.1012004 72.3526756,62.1712599 72.3526756,62.1712599 C68.02912,63.8314583 58.9829244,51.676121 52.6639467,34.8049702 Z" id="Shape" fill="#E3E3E3"></path>
                <path d="M50.1361867,0.198839286 C44.8813778,2.12516865 45.6130044,17.6015774 51.7990667,34.7385218 C57.9185867,51.8754663 67.16424,64.2301488 72.4190489,62.237371 C77.6738578,60.3110417 76.9422311,44.8346329 70.7561689,27.6976885 C64.5701067,10.560744 55.3244533,-1.72749008 50.1361867,0.198839286 Z" id="Shape" fill="#CECECE"></path>
                <path d="M58.3842133,41.3806647 C52.2646933,24.2437202 51.5330667,8.76731151 56.7213333,6.84098214 C57.8520444,6.44246032 59.11584,6.6416369 60.51272,7.43884921 C56.6547911,2.05855159 52.8634044,-0.797549603 50.1361867,0.198839286 C44.8813778,2.12516865 45.6130044,17.6015774 51.7990667,34.7385218 C56.6547911,48.2887698 63.4393956,58.7834028 68.6276622,61.6396726 C65.0359022,56.7243452 61.3774311,49.6170635 58.3842133,41.3806647 Z" id="Shape" fill="#C7C7C7"></path>
                <path d="M50.2692711,27.7641369 C50.0032711,27.8305853 49.8036444,27.9634821 49.6041867,28.0297619 C50.2028978,30.2217163 50.9345244,32.4136706 51.7326933,34.7383532 C52.9299467,38.0594246 54.2602844,41.2477679 55.6571644,44.1703175 C55.8567911,44.103869 56.0562489,44.0374206 56.1893333,43.9709722 C60.6459733,42.3104365 62.9739378,37.3951091 61.3776,32.8784722 C59.7145511,28.4282837 54.7924533,26.1036012 50.2692711,27.7641369 Z" id="Shape" fill="#EBEDEE"></path>
                <path d="M58.3842133,41.3806647 C56.5882489,36.4653373 55.3244533,31.6829067 54.4597422,27.2991667 C53.1294044,27.0998214 51.6659822,27.2327183 50.2692711,27.7641369 C50.0032711,27.8305853 49.8036444,27.9634821 49.6041867,28.0297619 C50.2028978,30.2217163 50.9345244,32.4136706 51.7326933,34.7383532 C52.9299467,38.0594246 54.2602844,41.2477679 55.6571644,44.1703175 C55.8567911,44.103869 56.0562489,44.0374206 56.1893333,43.9709722 C57.1871289,43.6388988 58.05184,43.1074802 58.7834667,42.4433333 C58.6503822,42.1114286 58.5172978,41.7791865 58.3842133,41.3806647 Z" id="Shape" fill="#D9DADB"></path>
            </g>
        </g>
    </g>
</svg>