<?xml version="1.0" encoding="UTF-8"?>
<svg viewBox="0 0 64 91" version="1.1" xmlns="http://www.w3.org/2000/svg" xmlns:xlink="http://www.w3.org/1999/xlink">

    <defs>
        <path d="M2.50299308,72.6452396 C1.78341968,70.8797947 1.40044462,68.9734067 1.40044462,67.0215736 L1.40044462,31.9784264 C1.40044462,27.4108202 3.49775357,23.0920882 7.09802735,20.2460905 L23.291252,7.44543052 C26.0470483,5.26698784 29.3784983,4.1777665 32.7099483,4.1777665 L32.7099483,49.3012191 L2.50299308,72.6452396 Z" id="path-1"></path>
    </defs>
    <g id="M---Navigation-extra-outils" stroke="none" stroke-width="1" fill="none" fill-rule="evenodd">
        <g id="HelpCenterHP" transform="translate(-33.000000, -800.000000)">
            <g id="ruby-copy-3" transform="translate(32.000000, 796.000000)">
                <g id="Polygon-Copy-3-+-Polygon-Copy-2-+-Polygon-Copy-Mask-Copy-Copy-Copy-Copy-Copy-Copy-Copy-Copy-Copy-Copy-Copy-Copy-Copy-Copy-Copy-Copy-Copy-Copy-Copy-Copy-Copy-Copy-Copy-Copy-Copy-Copy-Copy-Copy">
                    <g id="Group">
                        <g id="Combined-Shape">
                            <path d="M42.0120131,7.35323389 L58.3215168,20.2458118 C61.9202932,23.0906259 64.019452,27.4258158 64.019452,32.0132071 L64.019452,66.9867929 C64.019452,71.5741842 61.9202932,75.9093741 58.3215168,78.7541882 L42.0120131,91.6467661 C36.5595552,95.9569058 28.8603415,95.9569058 23.4078835,91.6467661 L7.09837983,78.7541882 C3.49960344,75.9093741 1.40044462,71.5741842 1.40044462,66.9867929 L1.40044462,32.0132071 C1.40044462,27.4258158 3.49960344,23.0906259 7.09837983,20.2458118 L23.4078835,7.35323389 C28.8603415,3.0430942 36.5595552,3.0430942 42.0120131,7.35323389 Z" id="Mask" fill="#FF3A47"></path>
                            <mask id="mask-2" fill="white">
                                <use xlink:href="#path-1"></use>
                            </mask>
                            <use fill="#FF6B71" xlink:href="#path-1"></use>
                        </g>
                        <path d="M62.6424332,25.7233707 C63.5387037,27.6618006 64.019452,29.7915899 64.019452,31.9784264 L64.019452,67.0215736 C64.019452,71.5891798 61.9221431,75.9079118 58.3218693,78.7539095 L42.1286447,91.5545695 C39.4677951,93.6579572 36.2702751,94.7458856 33.0542649,94.8183546 L33.0542649,50.2612298 C33.0542649,50.0317999 33.1577071,49.8143818 33.3362846,49.6684719 L62.6424332,25.7233707 Z" id="Combined-Shape" fill="#F12B37"></path>
                        <g id="Rectangle-37" transform="translate(13.772610, 21.982759)" fill="#FF3744">
                            <polygon id="Mask" points="18.9373385 0.206896552 36.8284835 13.862069 36.8284835 41.1724138 18.9373385 54.8275862 1.04619353 41.1724138 1.04619353 13.862069"></polygon>
                        </g>
                    </g>
                </g>
            </g>
        </g>
    </g>
</svg>