<?xml version="1.0" encoding="UTF-8"?>
<svg viewBox="0 0 88 86" version="1.1" xmlns="http://www.w3.org/2000/svg" xmlns:xlink="http://www.w3.org/1999/xlink">

    <defs>
        <path d="M78.3844365,0.470276105 C79.3354964,1.28265079 79.8110264,2.19354839 79.8110264,3.20296888 C79.9696839,5.26822152 79.9049242,7.16123352 79.8110264,8.00742221 C79.7484278,8.571548 79.4770165,9.41596707 78.9967926,10.5406794 L56.1821255,48.3065943 C55.4096608,49.1401825 54.4284093,49.7804013 53.2383709,50.2272507 C52.0483326,50.6741002 50.8582942,50.8491825 49.6682559,50.7524979 L4.88540222,32.0005709 C2.07133171,30.5840601 0.71427554,29.2252248 0.814233703,27.9240651 C0.964170948,25.9723255 0.798634428,23.3248514 1.62846741,22.2169569 C2.18168939,21.4783605 3.53874556,21.2065935 5.69963592,21.4016557 L47.2255548,37.7076791 C48.8679607,38.3836076 50.5010743,38.518328 52.1248955,38.1118405 C54.5606274,37.5021092 55.3678918,36.892378 56.9963592,35.2617756 C58.0820042,34.1747074 65.2113633,22.5775409 78.3844365,0.470276105 Z" id="path-1"></path>
        <path d="M52.110957,50.5692796 C51.2967233,50.7575775 50.4824896,50.8186503 49.6682559,50.7524979 L4.88540222,32.0005709 C2.07133171,30.5840601 0.71427554,29.2252248 0.814233703,27.9240651 C0.964170948,25.9723255 0.798634428,23.3248514 1.62846741,22.2169569 C2.18168939,21.4783605 3.53874556,21.2065935 5.69963592,21.4016557 L47.2255548,37.7076791 C48.8632614,38.3816736 50.4917288,38.5175527 52.110957,38.1153164 L52.110957,50.5692796 Z" id="path-3"></path>
    </defs>
    <g id="M---Navigation-extra-outils" stroke="none" stroke-width="1" fill="none" fill-rule="evenodd">
        <g id="HelpCenterHP" transform="translate(-24.000000, -1043.000000)">
            <g id="Group-3" transform="translate(24.000000, 1034.000000)">
                <g id="Group-5-Copy-4">
                    <path d="M34.063455,11.8028386 L65.7962967,10.946528 C72.7525521,10.7588134 78.543884,16.2457999 78.7315985,23.2020553 C78.7536643,24.0197617 78.6960487,24.8376737 78.5595674,25.6442117 L72.4201253,61.9253151 C71.3740746,68.1069633 65.9422937,72.5791191 59.6748112,72.4189323 L24.6850361,71.52465 C17.7285202,71.3468527 12.233283,65.563349 12.4110803,58.6068331 C12.43688,57.5973946 12.5839296,56.5947172 12.8490646,55.6203789 L22.2454402,21.0898685 C23.7049736,15.7262647 28.5068373,11.9527839 34.063455,11.8028386 Z" id="Rectangle-14" fill="#26C0FF" transform="translate(45.190480, 41.645885) rotate(21.000000) translate(-45.190480, -41.645885) "></path>
                    <path d="M37.0281666,26.6550081 L70.0738513,27.8370911 C77.0281911,28.085856 82.4641336,33.9251261 82.2153687,40.8794659 C82.1925166,41.5183058 82.1210814,42.1544803 82.0016819,42.782479 L74.8329351,80.4875127 C73.6767856,86.5684438 68.2749084,90.9090185 62.0876717,90.7287244 L26.5830672,89.6941317 C19.627232,89.4914409 14.1527269,83.688309 14.3554177,76.7324739 C14.3823504,75.8082111 14.5109414,74.8897213 14.7388674,73.993598 L24.366534,36.1410741 C25.8284928,30.3931774 31.101052,26.4429882 37.0281666,26.6550081 Z" id="Rectangle-14-Copy" fill="#26C0FF" transform="translate(48.022021, 58.677443) rotate(21.000000) translate(-48.022021, -58.677443) "></path>
                    <path d="M50.4824896,93.7596346 L44.7828537,75.8230088 L9.71285033,43.5130626 C4.91576864,49.6825022 2.15305554,53.9300749 1.42471102,56.2557808 C-1.12947313,64.4116478 -1.62800329e-13,72.5618042 3.25693481,74.1924065 C16.0315309,80.5880784 31.7733825,87.1104877 50.4824896,93.7596346 Z" id="Oval" fill="#26C0FF"></path>
                    <g id="Rectangle-15" transform="translate(3.256935, 38.930631)">
                        <mask id="mask-2" fill="white">
                            <use xlink:href="#path-1"></use>
                        </mask>
                        <use id="Mask" fill="#CECECE" xlink:href="#path-1"></use>
                        <mask id="mask-4" fill="white">
                            <use xlink:href="#path-3"></use>
                        </mask>
                        <use id="Combined-Shape" fill="#E3E3E3" xlink:href="#path-3"></use>
                    </g>
                    <path d="M14.6810836,66.0393948 L26.8945892,70.9312018 L21.8567221,79.5788677 C21.3448993,80.2428592 20.7858376,80.6025359 20.1795369,80.6578979 C19.2700859,80.7409409 18.501544,80.0056503 18.3451353,79.8995147 C18.0070222,79.6700783 17.1237847,78.2689124 15.4953173,77.4536112 C14.602059,77.0063965 11.6709372,77.2454032 10.6099151,76.63831 C9.54889302,76.0312168 9.79568141,75.0077077 9.79568141,74.1924065 C9.79568141,73.6488724 11.4241488,70.9312018 14.6810836,66.0393948 Z" id="Path-15" fill="#FFC100"></path>
                </g>
                <path d="M52.2057642,57.0436571 C51.7234137,57.7900894 50.9366748,58.3320363 49.842086,58.6695142 C48.742913,59.0069921 47.6942278,59.02069 46.699437,58.7106085 C45.6168705,58.3731668 44.8675172,57.7011888 44.4568117,56.6946542 L39.4790858,42.8887115 L33.4538197,50.8958543 C32.7389541,51.845859 31.8099023,52.483936 30.6632672,52.8101043 C29.5121396,53.1362725 28.3054955,53.1032762 27.046668,52.7111143 C25.8171157,52.3280723 25.0618814,51.7477548 24.7842446,50.9701443 C24.5110104,50.1925337 24.7547292,49.328739 25.5121065,48.3787343 L39.9833488,30.2269488 C40.7226932,29.2995632 41.6263756,28.6705157 42.6911209,28.3397874 C43.7514637,28.0090591 44.8120316,28.0352155 45.8761585,28.4182574 C46.9656218,28.8104194 47.6157379,29.3975768 47.8298955,30.1797474 C48.0485457,30.961918 47.8106365,31.8166832 47.1127915,32.7440688 L41.496018,40.2083544 L59.4630549,34.4506488 C60.5409079,34.0770526 61.4959391,34.0407358 62.3320388,34.3416973 C63.1681385,34.6426588 63.720079,35.1842168 63.9912461,35.9663873 C64.2669056,36.7485579 64.1639756,37.5128479 63.6790837,38.2592802 C63.1941917,39.0057124 62.3687518,39.5633478 61.1982726,39.932203 L48.3472668,43.9474458 L52.366581,54.7201199 C52.7405279,55.5227201 52.6881147,56.2972248 52.2057642,57.0436571 Z" id="K" fill="#F8F8F8"></path>
            </g>
        </g>
    </g>
</svg>