<?xml version="1.0" encoding="UTF-8"?>
<svg viewBox="0 0 186 215" version="1.1" xmlns="http://www.w3.org/2000/svg" xmlns:xlink="http://www.w3.org/1999/xlink">

    <defs>
        <path d="M204.453639,1.20407076 C206.934331,3.28403314 208.174677,5.61624851 208.174677,8.20071685 C208.588511,13.4884835 208.419595,18.3352541 208.174677,20.5017921 C208.011399,21.9461508 207.303465,24.108158 206.050875,26.9878136 L146.542356,123.68172 C144.527502,125.815997 141.96806,127.45518 138.864029,128.59927 C135.759999,129.743361 132.655969,130.191633 129.551938,129.944086 L12.7428136,81.9326165 C5.40274735,78.3058549 1.86307691,74.8267629 2.12380226,71.4953405 C2.5148903,66.4982068 2.08311398,59.7197503 4.24760453,56.8831541 C5.69059823,54.99209 9.23026867,54.2962716 14.8666159,54.7956989 L123.180531,96.5448029 C127.464492,98.2754153 131.724216,98.6203467 135.959701,97.5795969 C142.31293,96.0184723 144.418554,94.4573477 148.666159,90.2824373 C151.497895,87.4991637 170.093722,57.8063748 204.453639,1.20407076 Z" id="path-1"></path>
    </defs>
    <g id="M---Navigation-extra-outils" stroke="none" stroke-width="1" fill="none" fill-rule="evenodd">
        <g id="HelpCenterHP" transform="translate(-73.000000, -153.000000)">
            <g id="Group-5-Copy" transform="translate(164.816987, 261.183013) rotate(-30.000000) translate(-164.816987, -261.183013) translate(48.316987, 133.183013)">
                <path d="M88.4094096,28.9283222 L171.790264,26.719693 C189.763189,26.2436181 204.719058,40.4276176 205.195133,58.4005424 C205.251841,60.5413759 205.097158,62.6825811 204.733335,64.7930352 L188.818137,157.113445 C186.073728,173.033131 172.070037,184.532154 155.920608,184.126996 L64.1127522,181.823712 C46.1391787,181.372789 31.9342636,166.436784 32.3851862,148.463211 C32.4520422,145.798359 32.8459557,143.151807 33.5580791,140.582996 L57.9002786,52.7744995 C61.7232689,38.9840024 74.1038346,29.3072547 88.4094096,28.9283222 Z" id="Rectangle-14" fill="#E43453" transform="translate(118.790024, 105.423238) rotate(21.000000) translate(-118.790024, -105.423238) "></path>
                <path d="M90.9257046,65.3802808 L177.711341,68.4275805 C195.679497,69.0584955 209.734108,84.1360213 209.103193,102.104177 C209.043674,103.799243 208.851774,105.487065 208.529247,107.152228 L189.944014,203.105147 C186.912221,218.757863 172.990061,229.911545 157.052951,229.455688 L63.8906126,226.790921 C45.918734,226.276863 31.7663744,211.29105 32.2804326,193.319172 C32.3502974,190.876643 32.6949423,188.449744 33.3078551,186.084334 L58.2697898,89.7488818 C62.097706,74.9758265 75.6741698,64.8447544 90.9257046,65.3802808 Z" id="Rectangle-14-Copy" fill="#E43453" transform="translate(120.695871, 147.415460) rotate(21.000000) translate(-120.695871, -147.415460) "></path>
                <path d="M131.67574,238.400937 L116.809125,192.476923 L24.8567518,110.462813 C12.6627827,125.784985 5.61591127,136.423381 3.71613761,142.377998 C-2.94605539,163.259861 -2.18887408e-13,184.127102 8.49520906,188.302013 C41.8157607,204.677162 82.8759379,221.376804 131.67574,238.400937 Z" id="Oval" fill="#E43453"></path>
                <path d="M118.434133,123.745406 C117.449757,125.301803 115.862272,126.380168 113.666046,126.979135 C111.462369,127.576238 109.386607,127.561852 107.444282,126.937373 C106.130357,126.514931 105.116077,125.847853 104.403502,124.936641 C103.693714,124.026125 103.401519,122.908641 103.527237,121.584236 L104.503338,113.277524 L77.4034559,104.517242 L68.2396375,110.219333 C66.7722741,111.118439 65.2710495,111.663982 63.7361937,111.856048 C62.198478,112.047398 60.7716063,111.931586 59.4576809,111.509144 C57.5153563,110.884665 56.1745111,109.795714 55.4409029,108.24371 C54.7150254,106.693639 54.9584909,105.169 56.1655087,103.668297 C56.8238821,102.849732 57.7533396,102.090026 58.9523415,101.388763 L108.855368,71.0761163 C110.437456,70.0499861 112.120785,69.4160845 113.905232,69.1743498 C115.685159,68.9314846 117.357427,69.0689374 118.925474,69.5875602 C120.442938,70.0894533 121.62107,70.8943355 122.463358,72.0030952 C123.310255,73.1130077 123.628382,74.405541 123.417512,75.8806744 L119.33281,120.883479 C119.2701,121.942365 118.971066,122.896462 118.434133,123.745406 Z M89.6481671,96.6519804 L105.996989,101.964629 L108.922777,83.8129092 L89.6481671,96.6519804 Z M171.900259,109.344377 C173.411125,112.921584 172.787664,117.3969 170.002628,122.763647 L162.136823,137.921006 C161.183387,139.758271 159.797673,140.990855 157.975205,141.617687 C156.146824,142.24304 154.087354,142.187684 151.801166,141.452728 C149.800752,140.809641 148.420167,139.800839 147.663495,138.427324 C146.912322,137.055184 146.934364,135.535895 147.726118,133.868534 C145.974004,135.339685 143.889859,136.252026 141.472191,136.605225 C139.046456,136.956406 136.515622,136.708538 133.885663,135.863127 C130.969839,134.925824 128.630697,133.593262 126.875873,131.867328 C125.131322,130.143964 124.126024,128.204217 123.860106,126.048068 C123.604673,123.894542 124.157684,121.731712 125.511292,119.557547 C127.070884,117.052532 129.072072,115.301292 131.506976,114.301791 C133.931293,113.299641 136.979897,112.99789 140.65312,113.39659 C144.316077,113.792722 148.91734,114.89156 154.464747,116.695062 L156.667383,117.411156 L157.146893,116.547852 C158.079279,114.869198 158.32066,113.517695 157.873316,112.493871 C157.429004,111.470806 156.188248,110.627022 154.148737,109.961926 C151.948212,109.244321 148.337406,108.861228 143.295936,108.80756 C141.827417,108.783451 140.660321,108.630507 139.7963,108.349145 C138.446266,107.909518 137.627376,107.131519 137.342078,106.015744 C137.060081,104.900795 137.344338,103.657649 138.192383,102.28565 C138.835728,101.244824 139.601314,100.471437 140.488009,99.9651775 C141.373165,99.458533 142.504212,99.1177675 143.880324,98.9426551 C146.246199,98.6939037 148.978528,98.7647088 152.077825,99.1551806 C155.169996,99.5438698 158.051598,100.17625 160.728061,101.053676 C166.710743,103.014982 170.425696,105.776251 171.900259,109.344377 Z M148.367133,128.263274 C150.332748,127.455788 151.845637,126.092161 152.91122,124.1737 L153.39073,123.310396 L152.067425,122.881532 C148.538592,121.737888 145.871983,121.199442 144.064673,121.265467 C142.253568,121.330541 140.970395,122.006045 140.217961,123.292711 C139.576998,124.388759 139.452444,125.425025 139.846288,126.402038 C140.24279,127.379716 141.08697,128.077008 142.37686,128.493438 C144.395819,129.14524 146.394349,129.068968 148.367133,128.263274 Z" id="Aa" fill="#F8F8F8"></path>
                <g id="Rectangle-15" transform="translate(8.495209, 98.019575)">
                    <mask id="mask-2" fill="white">
                        <use xlink:href="#path-1"></use>
                    </mask>
                    <use id="Mask" fill="#CECECE" xlink:href="#path-1"></use>
                    <rect fill="#E3E3E3" mask="url(#mask-2)" x="-10.6190113" y="38.0960573" width="146.542356" height="144.034409"></rect>
                </g>
                <path d="M38.2933285,167.427461 L70.1503625,179.952192 L57.0098679,202.093231 C55.6748577,203.793281 54.216632,204.714178 52.6351907,204.855924 C50.2630288,205.068543 48.2584065,203.185943 47.8504387,202.914199 C46.968523,202.326762 44.6647353,198.739289 40.4171307,196.651833 C38.0872051,195.506808 30.4418286,196.118748 27.6743172,194.564378 C24.9068057,193.010008 25.5505149,190.389468 25.5505149,188.302013 C25.5505149,186.910376 29.7981194,179.952192 38.2933285,167.427461 Z" id="Path-15" fill="#FFC100"></path>
            </g>
        </g>
    </g>
</svg>