<?xml version="1.0" encoding="UTF-8"?>
<svg viewBox="0 0 13 12" version="1.1" xmlns="http://www.w3.org/2000/svg" xmlns:xlink="http://www.w3.org/1999/xlink">
    <g id="Symbols" stroke="none" stroke-width="1" fill="none" fill-rule="evenodd">
        <g id="FooterExtra" transform="translate(-111.000000, -43.000000)" fill="#26C0FF">
            <g id="Group-25" transform="translate(0.000000, 42.000000)">
                <g id="Group-23" transform="translate(110.000000, 0.000000)">
                    <path d="M7.5,11.25 L4.88508276,12.6247433 C4.39623817,12.8817442 3.79161102,12.6937976 3.53461021,12.2049531 C3.43227114,12.0102926 3.39695647,11.7873245 3.43413331,11.5705669 L3.93353806,8.65881373 L1.81802558,6.59669871 C1.422542,6.21119749 1.41444969,5.57808423 1.79995091,5.18260065 C1.95345951,5.02511702 2.15460192,4.92262984 2.37223895,4.89100533 L5.2958053,4.46618627 L6.60326392,1.81698575 C6.84768622,1.32173209 7.44731205,1.11839309 7.94256571,1.36281539 C8.13977832,1.46014562 8.29940584,1.61977315 8.39673608,1.81698575 L9.7041947,4.46618627 L12.627761,4.89100533 C13.1743059,4.97042295 13.5529874,5.4778658 13.4735697,6.02441066 C13.4419452,6.24204769 13.3394581,6.4431901 13.1819744,6.59669871 L11.0664619,8.65881373 L11.5658667,11.5705669 C11.6592277,12.1149033 11.2936399,12.6318592 10.7493034,12.7252202 C10.5325458,12.7623971 10.3095777,12.7270824 10.1149172,12.6247433 L7.5,11.25 Z" id="Star-2-Copy"></path>
                </g>
            </g>
        </g>
    </g>
</svg>