<?xml version="1.0" encoding="UTF-8"?>
<svg viewBox="0 0 30 30" version="1.1" xmlns="http://www.w3.org/2000/svg" xmlns:xlink="http://www.w3.org/1999/xlink">

    <g id="icons/contactMobile/dark" stroke="none" stroke-width="1" fill="none" fill-rule="evenodd">
        <path d="M22.7855613,24.9030897 C22.5046758,25.2014387 22.1695222,25.4391971 21.7936913,25.6205599 C21.4400177,25.79147 21.0723851,25.9076602 20.6934491,25.9617817 L20.5527727,25.9818739 L20.4106686,25.9818739 C20.4874599,25.9818739 20.4738579,25.983792 20.4917913,25.9820226 C20.3610271,25.9947325 20.222324,26 20.0687017,26 C19.7141616,26 19.261943,25.9521682 18.6591451,25.8598807 C17.9696649,25.7543223 17.1988028,25.516959 16.3238938,25.1539963 C15.460433,24.7957997 14.5177167,24.2784773 13.4847334,23.6026686 C12.4207043,22.9065823 11.3187867,21.9766391 10.1877239,20.831711 C9.27489126,19.9313324 8.50859484,19.0587797 7.88893246,18.2095915 C7.28183973,17.3775641 6.78566399,16.5959052 6.40061331,15.8597039 C6.01495448,15.1224043 5.71855286,14.4374315 5.51297819,13.7982653 C5.31578609,13.1851619 5.17740419,12.6385616 5.09968364,12.1486029 C5.01936784,11.6422836 4.9848641,11.2150215 5.00607474,10.8329811 C5.01355584,10.6982336 5.02099617,10.5493301 5.02099617,10.5836802 L5.02099617,10.4416363 L5.04107139,10.3010181 C5.09513103,9.92235401 5.21108511,9.55492673 5.38164161,9.20140086 C5.56399444,8.82342381 5.80238591,8.48729562 6.10199225,8.20571458 L8.46779939,5.83836545 C9.00132172,5.30449538 9.69685782,5 10.4583684,5 C11.0428234,5 11.6028142,5.18272473 12.0727932,5.53543874 C12.387678,5.77175622 12.6539293,6.06168914 12.8658767,6.39496649 L12.9477565,6.53612467 L14.8473093,10.1438963 C15.1966768,10.7653989 15.2973427,11.4705195 15.1510225,12.165993 C15.024316,12.7682416 14.7368372,13.3097307 14.302599,13.744252 L14.2446629,13.8022258 C14.3229413,13.9229175 14.4167637,14.0593347 14.5257844,14.2098813 C14.7515439,14.5216325 15.1053485,14.91804 15.6138861,15.4165258 C16.0815891,15.8949848 16.4817748,16.2528839 16.8015083,16.4860293 C16.9408547,16.5876015 17.0679071,16.6763218 17.1813651,16.7518393 L17.3818803,16.5476674 L17.4801207,16.4541962 C18.0618678,15.9371116 18.7863389,15.6609396 19.5647055,15.6609396 C20.2938667,15.6609396 20.4311235,15.7355185 24.5954034,18.1219201 C25.295161,18.5555608 25.790102,19.2092446 25.9530613,20.0240728 L25.9750959,20.1575971 C26.0922539,21.0557562 25.7927994,21.9115985 25.1492459,22.5557353 L22.7855613,24.9030897 Z" id="Shape-Copy" stroke="#2E3751" stroke-width="4" fill-rule="nonzero"></path>
    </g>
</svg>