<?xml version="1.0" encoding="UTF-8"?>
<svg viewBox="0 0 13 12" version="1.1" xmlns="http://www.w3.org/2000/svg" xmlns:xlink="http://www.w3.org/1999/xlink">
    <g id="Symbols" stroke="none" stroke-width="1" fill="none" fill-rule="evenodd">
        <g id="FooterExtra" transform="translate(-167.000000, -43.000000)" fill="#D8D8D8">
            <g id="Group-25" transform="translate(0.000000, 42.000000)">
                <g id="Group-23" transform="translate(110.000000, 0.000000)">
                    <path d="M63.5,11.25 L60.8850828,12.6247433 C60.3962382,12.8817442 59.791611,12.6937976 59.5346102,12.2049531 C59.4322711,12.0102926 59.3969565,11.7873245 59.4341333,11.5705669 L59.9335381,8.65881373 L57.8180256,6.59669871 C57.422542,6.21119749 57.4144497,5.57808423 57.7999509,5.18260065 C57.9534595,5.02511702 58.1546019,4.92262984 58.372239,4.89100533 L61.2958053,4.46618627 L62.6032639,1.81698575 C62.8476862,1.32173209 63.4473121,1.11839309 63.9425657,1.36281539 C64.1397783,1.46014562 64.2994058,1.61977315 64.3967361,1.81698575 L65.7041947,4.46618627 L68.627761,4.89100533 C69.1743059,4.97042295 69.5529874,5.4778658 69.4735697,6.02441066 C69.4419452,6.24204769 69.3394581,6.4431901 69.1819744,6.59669871 L67.0664619,8.65881373 L67.5658667,11.5705669 C67.6592277,12.1149033 67.2936399,12.6318592 66.7493034,12.7252202 C66.5325458,12.7623971 66.3095777,12.7270824 66.1149172,12.6247433 L63.5,11.25 Z" id="Star-2"></path>
                </g>
            </g>
        </g>
    </g>
</svg>