<?xml version="1.0" encoding="UTF-8"?>
<svg viewBox="0 0 21 17" version="1.1" xmlns="http://www.w3.org/2000/svg" xmlns:xlink="http://www.w3.org/1999/xlink">
    <g id="Symbols" stroke="none" stroke-width="1" fill="none" fill-rule="evenodd">
        <g id="FooterExtra" transform="translate(-239.000000, -361.000000)" fill="#DDDDDD" fill-rule="nonzero">
            <g id="Group-8" transform="translate(0.000000, 101.000000)">
                <g id="Group-3" transform="translate(0.000000, 66.000000)">
                    <g id="Group-7" transform="translate(0.000000, 192.000000)">
                        <g id="Group-20">
                            <g id="Group-6" transform="translate(202.000000, 0.000000)">
                                <g id="Group-21">
                                    <g id="Group-5" transform="translate(37.000000, 2.000000)">
                                        <path d="M0.00119100567,15.1030391 C1.90241216,16.3046309 4.15767542,17 6.57522887,17 C13.3670327,17 18.8726758,11.5129433 18.8726758,4.74546296 C18.8726758,4.57649302 18.8691028,4.4087724 18.8625836,4.2415515 C19.1082442,4.04890703 20.6275913,2.83538429 21,2.05524915 C21,2.05524915 19.7661808,2.56621924 18.5586264,2.6865908 C18.5562444,2.6865908 18.5532982,2.68715299 18.5509162,2.68715299 C18.5509162,2.68715299 18.5532982,2.68596614 18.5574354,2.68303025 C18.6687004,2.60894583 20.2242792,1.55371139 20.4348992,0.296400134 C20.4348992,0.296400134 19.5622054,0.760583357 18.3402963,1.1666734 C18.1380134,1.23363672 17.9262651,1.29947565 17.707935,1.36050472 C16.9203041,0.522838592 15.8007588,0 14.5580384,0 C12.1743346,0 10.2427741,1.9242584 10.2427741,4.29783317 C10.2427741,4.63277469 10.2814505,4.95878361 10.3546033,5.27179964 C10.0214978,5.2581821 4.94887929,4.97477485 1.49797171,0.810306119 C1.49797171,0.810306119 -0.564474002,3.61608163 2.72702687,6.50125115 C2.72702687,6.50125115 1.72645674,6.46152292 0.863228372,5.94755446 C0.863228372,5.94755446 0.546170126,9.34669244 4.27370445,10.2157789 C4.27370445,10.2157789 3.54023301,10.4926272 2.37010128,10.2952353 C2.37010128,10.2952353 3.02446487,13.0417308 6.33621284,13.2984027 C6.33621284,13.2984027 3.71744211,15.6558613 0,15.1027268 L0.00119100567,15.1030391 Z" id="Shape"></path>
                                    </g>
                                </g>
                            </g>
                        </g>
                    </g>
                </g>
            </g>
        </g>
    </g>
</svg>