<?xml version="1.0" encoding="UTF-8"?>
<svg viewBox="0 0 30 30" version="1.1" xmlns="http://www.w3.org/2000/svg" xmlns:xlink="http://www.w3.org/1999/xlink">

    <g id="icons/contactMobile/dark" stroke="none" stroke-width="1" fill="none" fill-rule="evenodd">
        <path d="M23.991897,20.4162903 C23.9438763,20.1761778 23.7939331,19.9781437 23.5418909,19.8219529 C21.0264483,18.3812774 19.7007198,17.6609396 19.5647055,17.6609396 C19.2767286,17.6609396 19.0248923,17.7569847 18.8088141,17.9490453 L17.7830308,18.993535 C17.7590058,19.0175757 17.7200129,19.0385561 17.6660228,19.056594 C17.6120915,19.074573 17.5730104,19.0836067 17.5490147,19.0836067 L17.3241146,19.0385561 C17.1741714,19.0086303 16.9582109,18.9215895 16.6762624,18.777522 C16.3943138,18.6334544 16.0432603,18.4082606 15.6234252,18.1022348 C15.2035019,17.7960324 14.7235895,17.36689 14.1836881,16.8145722 C13.6317889,16.2743189 13.2058667,15.7971246 12.9059215,15.3829304 C12.6059762,14.9687362 12.3840168,14.6175716 12.2400431,14.3294365 C12.0720737,14.0052845 11.9640935,13.7171494 11.9161022,13.4650312 C11.9161022,13.4290143 11.9251006,13.3839932 11.9430973,13.3299679 C11.961094,13.2759425 11.9820902,13.2369242 12.0060858,13.212913 L12.8879248,12.3304992 C13.0438963,12.1744261 13.1458777,11.982336 13.1938689,11.7542291 C13.2418601,11.5261221 13.2118656,11.3160236 13.1038853,11.1239335 L11.178237,7.46821953 C11.0942523,7.33615761 10.9922709,7.22510554 10.8722929,7.13506333 C10.7523148,7.04502111 10.61434,7 10.4583684,7 C10.2424079,7 10.0504429,7.0840394 9.88247361,7.25211821 L7.48891072,9.64724118 C7.36893263,9.75529184 7.26695125,9.89635798 7.18296659,10.0704396 C7.09898192,10.2445212 7.01499726,10.7277478 7.00299945,10.9438491 C6.99100164,11.1599504 7.01499726,11.4570897 7.07498631,11.8352671 C7.13497535,12.2134444 7.24895454,12.6636555 7.41692386,13.1859003 C7.58489319,13.7081452 7.83684718,14.2904182 8.17281523,14.9327193 C8.50875389,15.5750205 8.95267282,16.2743484 9.50457203,17.0307324 C10.0564712,17.7870576 10.7523442,18.5794291 11.5921908,19.4078175 C12.647998,20.4763479 13.6438455,21.3168008 14.5796452,21.9289996 C15.5154449,22.5412278 16.3522627,23.000502 17.0902456,23.3066455 C17.828052,23.6127302 18.4519087,23.8048497 18.9618156,23.8829157 C19.4717224,23.9609817 19.8406845,24 20.0687017,24 C20.1646841,24 20.2426699,23.9969397 20.3025707,23.9909664 C20.3625892,23.9849635 20.3986708,23.9818739 20.4106686,23.9818739 C20.5785791,23.957892 20.7495185,23.9038667 20.9234867,23.8197979 C21.097455,23.7358467 21.2383998,23.6337106 21.3463801,23.5136543 L23.739943,21.1366281 C23.9438175,20.9325618 24.0279198,20.6924492 23.991897,20.4162903 Z M22.6638959,27.421322 C22.130517,27.6790733 21.566191,27.8574283 20.9762296,27.9416896 L20.6948767,27.9818739 L20.4106686,27.9818739 C20.5294364,27.9818739 20.562806,27.9826811 20.6042947,27.9799758 C20.418199,27.9946242 20.2480796,28 20.0687017,28 C19.5876735,28 19.0522412,27.9433665 18.3564745,27.8368457 C17.4873499,27.7037839 16.5694504,27.4211451 15.557542,27.0013471 C14.5683631,26.5909978 13.5196836,26.0155273 12.3898215,25.2763377 C11.1974958,24.4963199 9.98949942,23.4768534 8.78325691,22.2556044 C7.79741421,21.2832118 6.96070256,20.33048 6.27329288,19.3884506 C5.61102459,18.4808045 5.06258502,17.6168109 4.62841139,16.7866884 C4.1930405,15.9543497 3.85220189,15.1666847 3.60903252,14.4106303 C3.38261763,13.7066684 3.21983304,13.0636788 3.12438097,12.4619388 C3.02373842,11.8274775 2.97872656,11.2700926 3.00915004,10.7221131 C3.04979045,9.99010893 3.23175839,9.05484623 3.58031663,8.33236212 C3.86018518,7.75225657 4.23250613,7.22417812 4.70708512,6.77218185 L7.05312518,4.42461269 C7.95220051,3.52495135 9.15130777,3 10.4583684,3 C11.4713068,3 12.4533137,3.32042835 13.2732936,3.93581416 C13.783085,4.31840689 14.2136062,4.78722066 14.5535165,5.32171345 L14.6411598,5.45952842 L16.6273627,9.23020121 C17.1884944,10.2651174 17.3476923,11.439314 17.1081762,12.577757 C17.0257048,12.9697516 16.9001088,13.3479649 16.7332016,13.7064167 C16.8262494,13.8022404 16.929612,13.9060886 17.0440841,14.0184794 C17.1115357,14.0874822 17.1767989,14.1530486 17.2397464,14.2151376 C17.9525357,13.8520506 18.7436022,13.6609396 19.5647055,13.6609396 C20.4948684,13.7494098 20.4948684,13.7494098 20.8102334,13.8555427 C21.0539761,13.9386173 21.0539761,13.9386173 21.2061869,14.0008361 C21.3521635,14.0614857 21.4964306,14.128427 21.6579273,14.2080116 C21.8970774,14.3258633 22.1965984,14.4832271 22.5707244,14.6865093 C23.2649672,15.0637278 24.2484198,15.6170106 25.5298573,16.3509315 L25.6489159,16.4218873 C26.7963885,17.1329776 27.6363276,18.242311 27.9142256,19.6318552 L27.9407802,19.7646336 L27.9582947,19.8989038 C28.1566,21.4191551 27.6417134,22.8907031 26.5585488,23.9748425 L24.2161322,26.3010758 C23.7657746,26.7726536 23.2398487,27.1433874 22.6638959,27.421322 Z" id="Shape-Copy" fill="#2E3751" fill-rule="nonzero"/>
    </g>
</svg>