<?xml version="1.0" encoding="UTF-8"?>
<svg viewBox="0 0 12 20" version="1.1" xmlns="http://www.w3.org/2000/svg" xmlns:xlink="http://www.w3.org/1999/xlink">
    <g id="Symbols" stroke="none" stroke-width="1" fill="none" fill-rule="evenodd">
        <g id="FooterExtra" transform="translate(-278.000000, -359.000000)" fill="#DDDDDD" fill-rule="nonzero">
            <g id="Group-8" transform="translate(0.000000, 101.000000)">
                <g id="Group-3" transform="translate(0.000000, 66.000000)">
                    <g id="Group-7" transform="translate(0.000000, 192.000000)">
                        <g id="Group-20">
                            <g id="Group-6" transform="translate(202.000000, 0.000000)">
                                <g id="Group-21">
                                    <g id="Group-4" transform="translate(76.000000, 0.000000)">
                                        <g id="facebook-(1)" transform="translate(0.350970, 0.000000)">
                                            <g id="facebook-logo-(2)">
                                                <path d="M10.3193034,0.00416133496 L7.74731836,0 C4.85778135,0 2.99043559,1.93189975 2.99043559,4.92202699 L2.99043559,7.191411 L0.404419634,7.191411 C0.180957152,7.191411 1.56319402e-13,7.37409361 1.56319402e-13,7.5994299 L1.56319402e-13,10.8875087 C1.56319402e-13,11.112845 0.181163489,11.2953195 0.404419634,11.2953195 L2.99043559,11.2953195 L2.99043559,19.5921892 C2.99043559,19.8175255 3.17139274,20 3.39485522,20 L6.76887045,20 C6.99233293,20 7.17329009,19.8173174 7.17329009,19.5921892 L7.17329009,11.2953195 L10.1969459,11.2953195 C10.4204083,11.2953195 10.6013655,11.112845 10.6013655,10.8875087 L10.6026035,7.5994299 C10.6026035,7.49123519 10.5598918,7.38761795 10.4841663,7.31104938 C10.4084408,7.23448082 10.3052725,7.191411 10.1979775,7.191411 L7.17329009,7.191411 L7.17329009,5.26762585 C7.17329009,4.34297723 7.39180049,3.87357864 8.58628277,3.87357864 L10.3188908,3.87295444 C10.5421469,3.87295444 10.7231041,3.69027184 10.7231041,3.46514362 L10.7231041,0.411972161 C10.7231041,0.187052006 10.5423532,0.00457746845 10.3193034,0.00416133496 Z" id="Shape"></path>
                                            </g>
                                        </g>
                                    </g>
                                </g>
                            </g>
                        </g>
                    </g>
                </g>
            </g>
        </g>
    </g>
</svg>