<?xml version="1.0" encoding="UTF-8"?>
<svg viewBox="0 0 21 21" version="1.1" xmlns="http://www.w3.org/2000/svg" xmlns:xlink="http://www.w3.org/1999/xlink">
    <g id="M---Navigation-extra-outils" stroke="none" stroke-width="1" fill="none" fill-rule="evenodd">
        <g id="EmailSystem" transform="translate(-217.000000, -857.000000)" fill="#DDDDDD" fill-rule="nonzero">
            <g id="FooterExtra" transform="translate(15.000000, 545.000000)">
                <g id="Group-8" transform="translate(0.000000, 248.000000)">
                    <g id="Group-3" transform="translate(0.000000, 64.000000)">
                        <g id="Group-7">
                            <g id="Group-20">
                                <g id="Group-6" transform="translate(202.000000, 0.000000)">
                                    <g id="Group-21">
                                        <g id="instagram-(1)">
                                            <path d="M14.4375,0 L6.5625,0 C2.9386875,0 0,2.9386875 0,6.5625 L0,14.4375 C0,18.0613125 2.9386875,21 6.5625,21 L14.4375,21 C18.0613125,21 21,18.0613125 21,14.4375 L21,6.5625 C21,2.9386875 18.0613125,0 14.4375,0 Z M19.03125,14.4375 C19.03125,16.970625 16.970625,19.03125 14.4375,19.03125 L6.5625,19.03125 C4.029375,19.03125 1.96875,16.970625 1.96875,14.4375 L1.96875,6.5625 C1.96875,4.029375 4.029375,1.96875 6.5625,1.96875 L14.4375,1.96875 C16.970625,1.96875 19.03125,4.029375 19.03125,6.5625 L19.03125,14.4375 Z" id="Shape"></path>
                                            <path d="M10.25,5 C7.3506875,5 5,7.3506875 5,10.25 C5,13.1493125 7.3506875,15.5 10.25,15.5 C13.1493125,15.5 15.5,13.1493125 15.5,10.25 C15.5,7.3506875 13.1493125,5 10.25,5 Z M10.25,13.53125 C8.441375,13.53125 6.96875,12.058625 6.96875,10.25 C6.96875,8.4400625 8.441375,6.96875 10.25,6.96875 C12.058625,6.96875 13.53125,8.4400625 13.53125,10.25 C13.53125,12.058625 12.058625,13.53125 10.25,13.53125 Z" id="Shape"></path>
                                            <circle id="Oval" cx="15.6995625" cy="4.6995625" r="1"></circle>
                                        </g>
                                    </g>
                                </g>
                            </g>
                        </g>
                    </g>
                </g>
            </g>
        </g>
    </g>
</svg>