<?xml version="1.0" encoding="UTF-8"?>
<svg viewBox="0 0 121 147" version="1.1" xmlns="http://www.w3.org/2000/svg" xmlns:xlink="http://www.w3.org/1999/xlink">

    <defs>
        <rect id="path-1" x="41.3383233" y="78.0718657" width="15.3762253" height="19.7267807" rx="7.68811263"></rect>
        <rect id="path-3" x="0.338323306" y="0.501381382" width="15.3762253" height="19.7300384" rx="7.68811263"></rect>
        <path d="M15.5683748,14.0429148 C10.0214651,13.9487518 4.82542214,12.4139035 0.338316207,9.79644021 L0.338323306,8.18949401 C0.338323306,3.94346665 3.78040858,0.501381382 8.02643594,0.501381382 C12.2724633,0.501381382 15.7145486,3.94346665 15.7145486,8.18949401 L15.7145486,12.5433072 C15.7145486,13.0564716 15.6642716,13.5578932 15.5683748,14.0429148 Z" id="path-5"></path>
        <path d="M50.7298804,12 C66.596831,12 79.4595359,24.8627049 79.4595359,40.7296555 C79.4595359,40.9989236 79.4557503,41.2681785 79.4481803,41.5373402 L78.7789,65.3344878 L74.1189755,75.6007109 C69.9537512,84.7770661 60.80731,90.6699982 50.7298804,90.6699982 C40.6524508,90.6699982 31.5060096,84.7770661 27.3407853,75.6007109 L22.6808608,65.3344878 L22.0115805,41.5373402 C21.5655086,25.6766611 34.0615166,12.4574275 49.9221957,12.0113556 C50.1913574,12.0037856 50.4606122,12 50.7298804,12 Z" id="path-7"></path>
        <path d="M3.5,0 L20.5,0 C22.4329966,-3.55085719e-16 24,1.56700338 24,3.5 L24,5 C24,6.1045695 23.1045695,7 22,7 L2,7 C0.8954305,7 1.3527075e-16,6.1045695 0,5 L0,3.5 C-2.36723813e-16,1.56700338 1.56700338,3.55085719e-16 3.5,0 Z" id="path-9"></path>
        <path d="M53.8959189,2.1029461 C67.5319107,4.08585718 78,15.7222002 78,29.7804878 L78,36.1381405 C75.2041654,32.8020457 71.0203554,33.3902439 66.3448276,33.3902439 L56.4079088,33.3902439 C56.457227,33.0507047 56.4827586,32.7034575 56.4827586,32.350247 L56.4827586,23.2316599 C56.4827586,19.2704452 53.2715596,16.0592462 49.3103448,16.0592462 C45.3491301,16.0592462 42.137931,19.2704452 42.137931,23.2316599 L42.137931,32.350247 C42.137931,32.7034575 42.1634626,33.0507047 42.2127809,33.3902439 L33.1724138,33.3902439 C28.496886,33.3902439 24.3130759,32.8020457 21.5172414,36.1381405 L21.5172414,29.7804878 C21.5172414,15.6160017 32.1440831,3.91018991 45.9308868,2.0596642 C46.47809,0.863774404 48.0499865,0 49.9037562,0 C51.779816,0 53.3671832,0.884671645 53.8959189,2.1029461 Z" id="path-11"></path>
        <filter x="-4.4%" y="-6.9%" width="108.9%" height="113.8%" filterUnits="objectBoundingBox" id="filter-12">
            <feOffset dx="-5" dy="4" in="SourceAlpha" result="shadowOffsetInner1"></feOffset>
            <feComposite in="shadowOffsetInner1" in2="SourceAlpha" operator="arithmetic" k2="-1" k3="1" result="shadowInnerInner1"></feComposite>
            <feColorMatrix values="0 0 0 0 0   0 0 0 0 0.676290929   0 0 0 0 0.985858858  0 0 0 1 0" type="matrix" in="shadowInnerInner1"></feColorMatrix>
        </filter>
        <path d="M92.0434783,40 C94.2286049,40 96,38.2123936 96,36.0072694 C96,33.8021452 94.2286049,32.0145388 92.0434783,32.0145388 C90.9127046,32.0145388 83.826087,31.4002726 82,38.1572013 C87.4782609,36.9286688 89.3043478,40 92.0434783,40 Z" id="path-13"></path>
        <filter x="-7.1%" y="-12.5%" width="114.3%" height="125.0%" filterUnits="objectBoundingBox" id="filter-14">
            <feOffset dx="-1" dy="-2" in="SourceAlpha" result="shadowOffsetInner1"></feOffset>
            <feComposite in="shadowOffsetInner1" in2="SourceAlpha" operator="arithmetic" k2="-1" k3="1" result="shadowInnerInner1"></feComposite>
            <feColorMatrix values="0 0 0 0 0   0 0 0 0 0.722929299   0 0 0 0 1  0 0 0 1 0" type="matrix" in="shadowInnerInner1"></feColorMatrix>
        </filter>
        <path d="M105.782609,56 C109.216379,56 112,53.3137085 112,50 C112,46.6862915 109.216379,44 105.782609,44 C104.005679,44 95.8032125,45.1784272 90,53.2307692 C97.9838749,52.9691981 101.478261,56 105.782609,56 Z" id="path-15"></path>
        <filter x="-6.8%" y="-12.5%" width="113.6%" height="125.0%" filterUnits="objectBoundingBox" id="filter-16">
            <feOffset dx="-2" dy="-3" in="SourceAlpha" result="shadowOffsetInner1"></feOffset>
            <feComposite in="shadowOffsetInner1" in2="SourceAlpha" operator="arithmetic" k2="-1" k3="1" result="shadowInnerInner1"></feComposite>
            <feColorMatrix values="0 0 0 0 0   0 0 0 0 0.722929299   0 0 0 0 1  0 0 0 1 0" type="matrix" in="shadowInnerInner1"></feColorMatrix>
        </filter>
    </defs>
    <g id="icones" stroke="none" stroke-width="1" fill="none" fill-rule="evenodd">
        <g id="Artboard-15" transform="translate(-28.000000, -26.000000)">
            <g id="global-stressed-kid" transform="translate(37.000000, 34.000000)">
                <g id="Group-2">
                    <g id="Group">
                        <g id="Group-42">
                            <g id="Group-43-Copy-12">
                                <g id="Group-41-Copy-9">
                                    <g id="Group-18-Copy-62">
                                        <g id="Group-17-Copy" transform="translate(0.000000, 0.781898)">
                                            <g id="Rectangle-6-Copy-2">
                                                <g id="Group-43-Copy-26">
                                                    <g id="Group-41-Copy-9">
                                                        <g id="Group-18-Copy-81">
                                                            <g id="Group-17-Copy" transform="translate(0.000000, 0.354496)">
                                                                <g id="Rectangle-6-Copy-3" transform="translate(0.560776, 0.679754)">
                                                                    <path d="M5.25229027,29.8951847 C5.37258171,30.1742089 5.4392244,30.4817922 5.4392244,30.8049408 L5.4392244,28.9854285 C5.4392244,29.3085771 5.37258171,29.6161605 5.25229027,29.8951847 Z M50.3430586,5.09523631 C50.2935106,5.1328012 50.2450378,5.16360284 50.1985262,5.18812576 C50.1797834,5.19800774 50.238953,5.18385245 50.3429806,5.18385245 C50.447461,5.18385245 50.5058458,5.19799769 50.4840708,5.18633803 C50.438481,5.16192652 50.3912112,5.13168997 50.3430586,5.09523631 Z M57.0777152,-2.30350782 C72.2684493,0.86500691 83.4392244,14.2295447 83.4392244,29.9643403 L83.4392244,34.1193685 C83.7443243,35.9513 83.8987603,37.8145619 83.8987603,39.6954058 C83.8987603,40.0115363 83.8943159,40.3276513 83.8854284,40.6436569 L83.7149306,46.7059329 C87.8424361,49.5111209 89.054185,55.6665422 87.3722619,61.5321051 C86.2183424,65.5563007 83.8332036,68.9818821 80.7635103,70.7896323 L78.1111243,76.6330718 C76.4673018,80.2545572 74.1613966,83.4705606 71.3577823,86.1466474 C79.7732949,89.4925075 85.465418,97.7702456 85.465418,107.138072 L85.4654181,112.819442 C85.4654181,119.467959 81.2825656,125.39463 75.0395416,127.533828 C66.2839521,130.533967 57.3618082,132.037412 48.2945643,132.037412 C39.17036,132.037412 30.0578927,130.515123 20.9755983,127.480627 C14.6758192,125.3758 10.4392244,119.42059 10.4392244,112.728851 L10.4392244,107.138072 C10.4392244,96.6447619 17.5812538,87.5192091 27.6928542,85.1609258 C27.7749082,85.1417887 27.856964,85.1227678 27.9390216,85.1038631 C25.6011205,82.6471811 23.6614287,79.7930564 22.2270852,76.6330718 L20.0397073,71.8140859 C16.284788,70.3722553 13.2858904,66.5083791 11.9434055,61.8265779 C10.1333657,55.5142189 11.6758177,48.8648382 16.6158775,46.4427646 L16.4527812,40.6436569 C16.4326681,39.9285113 16.4349649,39.2153491 16.4594702,38.5049408 L3.13922433,38.5049408 C-1.11336821,38.5049408 -4.5607756,35.0575334 -4.5607756,30.8049408 L-4.5607756,28.9854285 C-4.5607756,24.732836 -1.11336821,21.2854286 3.13922433,21.2854286 L18.1207973,21.2854286 C21.4048266,9.31304229 31.3081301,0.0602455974 43.6909835,-2.37890499 C45.4220156,-3.95418917 47.8345357,-4.81614755 50.3429806,-4.81614755 C52.8922101,-4.81614755 55.3420846,-3.92593303 57.0777152,-2.30350782 Z M49.7495692,21.2430986 C48.5497782,21.2430986 47.5771554,22.2157214 47.5771554,23.4155124 L47.5771554,32.5340994 C47.5771554,33.7338905 48.5497782,34.7065132 49.7495692,34.7065132 C50.9493602,34.7065132 51.921983,33.7338905 51.921983,32.5340994 L51.921983,23.4155124 C51.921983,22.2157214 50.9493602,21.2430986 49.7495692,21.2430986 Z" id="Combined-Shape" stroke="#FFFFFF" stroke-width="10" fill="#FFFFFF"></path>
                                                                    <mask id="mask-2" fill="white">
                                                                        <use xlink:href="#path-1"></use>
                                                                    </mask>
                                                                    <use id="Mask-Copy" fill="#FFD7C0" xlink:href="#path-1"></use>
                                                                    <rect fill="#F9CBB4" mask="url(#mask-2)" x="25.7623889" y="4.92248372" width="62.6974319" height="86.6932822" rx="31.3487159"></rect>
                                                                </g>
                                                                <g id="Group-43-Copy-27" transform="translate(16.000000, 78.248338)">
                                                                    <g id="Group-41-Copy-9">
                                                                        <g id="Group-18-Copy-82">
                                                                            <g id="Group-17-Copy" transform="translate(0.000000, 0.354625)">
                                                                                <g id="Rectangle-6-Copy" transform="translate(0.000000, 9.876957)">
                                                                                    <g id="Group-60">
                                                                                        <path d="M13.3892802,2.23008102 C19.7638857,0.74336034 26.1384913,0 32.5130968,0 C38.8877023,0 45.2623079,0.74336034 51.6369134,2.23008102 C59.4715534,4.05731916 65.0261936,11.1546244 65.0261936,19.3379053 L65.0261937,25.0192754 C65.0261937,29.5424875 62.1901594,33.5608562 57.9795548,35.0036373 C49.7426634,37.8260423 41.3679251,39.2372448 32.8553399,39.2372448 C24.2771708,39.2372448 15.6990016,37.8042137 7.12083239,34.9381516 C2.87229383,33.5186673 2.53331955e-15,29.4811996 0,24.9286843 L0,19.3379053 C-9.8431851e-16,11.1546244 5.55464022,4.05731916 13.3892802,2.23008119 L13.3892802,2.23008102 Z" id="Mask-Copy-4" fill="#00B5FF"></path>
                                                                                        <path d="M24.5963911,0.382173442 C27.235293,0.127391147 29.8741949,0 32.5130968,0 C35.0815984,0 37.6500999,0.120684758 40.2186015,0.362054275 C40.6976007,3.83318084 44.4195205,9.57649358 43.2785685,11.9125844 C41.909596,14.7155454 39.8561372,17.5185064 36.433706,18.9199869 C34.9889197,19.5116248 36.8213725,15.7207547 34.9087987,14.4229916 C32.2908391,12.6465942 27.3794499,13.7222513 26.1664123,11.9125844 C25.2280236,10.5126518 23.6147756,1.40148051 24.2992618,0.700740257 C24.3826894,0.615331576 24.4822635,0.507992131 24.5963911,0.382173442 Z" id="Combined-Shape" fill="#00A9EE"></path>
                                                                                        <path d="M65.0261937,25.0192754 C65.0261937,29.5424875 62.1901594,33.5608562 57.9795548,35.0036373 C56.0779553,35.6552283 54.1690089,36.2316049 52.2527154,36.7327671 C51.1090371,36.0380165 49.8668974,35.141667 48.5262964,34.0437188 C47.6136481,35.9123595 47.6136481,34.9780391 48.5262964,31.2407578 C48.8028497,30.108276 47.0118158,23.9521587 46.4728376,23.5326149 C45.1925008,22.5359933 52.1254263,13.3826609 55.2488872,13.0215111 C58.0443856,12.6982819 51.5950226,18.0511458 56.0556451,17.9266929 C59.9142335,17.8190369 62.6014839,19.8754396 65.0261936,20.7617402 L65.0261937,25.0192754 Z" id="Combined-Shape" fill="#00A9EE"></path>
                                                                                        <path d="M14.2128288,36.9811676 C11.84883,36.4089953 9.48483119,35.72799 7.12083239,34.9381516 C2.87229383,33.5186673 2.53331955e-15,29.4811996 0,24.9286843 L0,21.1572644 C2.96213143,21.0947436 5.96497366,17.7909707 10.8295083,17.9266929 C15.2901308,18.0511458 8.84076783,12.6982819 11.6362662,13.0215111 C14.7597271,13.3826609 21.6926526,22.5359933 20.4123158,23.5326149 C19.8733376,23.9521587 18.0823037,30.108276 18.358857,31.2407578 C19.2715054,34.9780391 19.2715054,35.9123595 18.358857,34.0437188 C16.8525394,35.2773884 15.47053,36.256538 14.2128288,36.9811676 Z" id="Combined-Shape" fill="#00A9EE"></path>
                                                                                    </g>
                                                                                    <path d="M10.9873687,36.132956 C9.69852328,35.7670374 8.40967784,35.3687693 7.12083239,34.9381516 C2.87229383,33.5186673 2.53331955e-15,29.4811996 0,24.9286843 L0,19.3379053 C-8.17249435e-17,18.6584727 0.0382907513,17.9865261 0.112998034,17.3244604 C1.92207495,16.7552328 5.54686518,17.0529019 10.9873687,18.2174678 L10.9873687,36.132956 Z" id="Combined-Shape" fill="#FFCDB8"></path>
                                                                                    <path d="M64.9704047,17.9210939 C65.0073822,18.3891368 65.0261936,18.8616822 65.0261936,19.3379053 L65.0261937,25.0192754 C65.0261937,29.5424875 62.1901594,33.5608562 57.9795548,35.0036373 C56.1594355,35.6273087 54.3325854,36.1820733 52.4990045,36.667931 C53.1668415,31.6320395 54.4038626,23.0764999 55.3541053,20.961206 C56.2220912,19.0290202 59.4275244,18.0156495 64.9704047,17.9210939 Z" id="Combined-Shape" fill="#FFCDB8"></path>
                                                                                    <g id="Group-45" transform="translate(8.852612, 18.026196)" fill="#FDC1A3">
                                                                                        <path d="M4.33117482,18.6990326 C2.98310476,18.3547412 1.6350347,17.9750588 0.286964637,17.5599856 C0.551156229,11.4083729 1.06287326,2.20482884 1.80584549,0.665645389 C1.89262859,0.485860591 2.0226855,0.3267365 2.19601621,0.188273117 C4.32659979,9.69940691 5.03831932,15.8696601 4.33117482,18.6990326 Z" id="Combined-Shape"></path>
                                                                                        <path d="M49.2471198,16.9354311 C49.2071869,16.9496679 49.1671274,16.9636719 49.1269428,16.9774413 C47.3068236,17.6011128 45.4799734,18.1558773 43.6463925,18.641735 C44.3142295,13.6058435 45.5512506,5.05030394 46.5014933,2.93500998 C46.6947936,2.50471274 47.0040199,2.11998428 47.4291723,1.78082462 C48.9580052,9.0053189 49.5639877,14.0568544 49.2471198,16.9354311 Z" id="Combined-Shape"></path>
                                                                                    </g>
                                                                                    <g id="Group-54" transform="translate(52.020955, 19.336917)"></g>
                                                                                    <g id="Group-54-Copy" transform="translate(10.675604, 29.377846) scale(-1, 1) translate(-10.675604, -29.377846) translate(8.345969, 17.992880)"></g>
                                                                                </g>
                                                                                <g id="Rectangle-6-Copy-3" transform="translate(25.137206, 0.250433)">
                                                                                    <mask id="mask-4" fill="white">
                                                                                        <use xlink:href="#path-3"></use>
                                                                                    </mask>
                                                                                    <use id="Mask-Copy" fill="#FFD7C0" xlink:href="#path-3"></use>
                                                                                    <mask id="mask-6" fill="white">
                                                                                        <use xlink:href="#path-5"></use>
                                                                                    </mask>
                                                                                    <use id="Combined-Shape" fill="#FFCBAE" xlink:href="#path-5"></use>
                                                                                </g>
                                                                            </g>
                                                                        </g>
                                                                    </g>
                                                                </g>
                                                            </g>
                                                        </g>
                                                    </g>
                                                </g>
                                                <mask id="mask-8" fill="white">
                                                    <use xlink:href="#path-7"></use>
                                                </mask>
                                                <use id="Mask" fill="#FFD7BF" xlink:href="#path-7"></use>
                                                <path d="M17.9713916,64.5384256 L18.9105705,29.4523784 C19.0423664,24.528718 22.0188834,20.128809 26.5399989,18.1745019 L36.4967816,13.8705615 C37.515272,13.4303067 38.5872382,13.1259071 39.6851074,12.9651895 C49.0382108,11.5960086 56.9683997,11.6835284 63.4756741,13.227749 C66.6331803,13.9770468 70.6253624,15.5141905 75.4522204,17.8391802 C79.6794041,19.8753201 82.4331245,24.0831027 82.6069689,28.77189 L83.4881536,52.5384256 C78.5562696,51.9763016 76.0127573,51.3806603 75.8576169,50.7515019 C74.9390693,47.0264141 74.4913781,31.9647052 70.4513363,27.7990396 C66.3210337,23.5403066 58.5264345,32.2181021 51,32.2181021 C43.6171425,32.2181021 35.6547793,23.1688673 31.338847,27.0185357 C26.9511994,30.9321717 25.9558738,47.7423925 25.5180953,51.3906623 C25.3272649,52.9809666 22.811697,57.3635543 17.9713916,64.5384256 Z" fill="#FDC2A3" mask="url(#mask-8)"></path>
                                            </g>
                                            <rect id="Rectangle" fill="#FDC2A3" x="40" y="50.2181021" width="25" height="7"></rect>
                                            <circle id="Oval-3" fill="#595959" cx="64" cy="54" r="5"></circle>
                                            <circle id="Oval-3-Copy" fill="#595959" cx="38" cy="54" r="5"></circle>
                                            <g id="Rectangle-23" transform="translate(39.000000, 67.218102)">
                                                <mask id="mask-10" fill="white">
                                                    <use xlink:href="#path-9"></use>
                                                </mask>
                                                <use id="Mask" fill="#FFFFFF" xlink:href="#path-9"></use>
                                            </g>
                                            <g id="Group-31" transform="translate(30.111111, 39.138614)" fill="#595959">
                                                <path d="M1.45305558,4.61282167 C2.95308551,4.36661352 4.69123256,4.24350945 6.66749673,4.24350945 C8.84885671,4.24350945 11.1796385,4.39349075 13.659842,4.69345334 L13.659845,4.69342879 C14.3228312,4.77361215 14.8215289,5.33625779 14.8215289,6.00407515 L14.8215289,6.00407515 C14.8215289,6.55983353 14.3709977,7.01036471 13.8152394,7.01036471 C13.7711099,7.01036471 13.7270282,7.00746186 13.6832798,7.00167495 C11.4816797,6.71043079 9.3135192,6.56481999 7.1788014,6.56481999 C5.11646665,6.56481999 3.18952851,6.70072359 1.39798698,6.97253078 L1.39798532,6.97251984 C0.863128086,7.05366674 0.363758071,6.68586185 0.282611171,6.15100461 C0.275233362,6.10237583 0.271528739,6.05326042 0.271528739,6.00407515 L0.271528739,6.00407515 C0.271528739,5.31355635 0.771652551,4.72465247 1.45305372,4.61281035 Z" id="Rectangle-27-Copy-9" transform="translate(7.546529, 5.563510) rotate(17.000000) translate(-7.546529, -5.563510) "></path>
                                                <path d="M29.4530556,3.61282167 C30.9530855,3.36661352 32.6912326,3.24350945 34.6674967,3.24350945 C36.8488567,3.24350945 39.1796385,3.39349075 41.659842,3.69345334 L41.659845,3.69342879 C42.3228312,3.77361215 42.8215289,4.33625779 42.8215289,5.00407515 L42.8215289,5.00407515 C42.8215289,5.55983353 42.3709977,6.01036471 41.8152394,6.01036471 C41.7711099,6.01036471 41.7270282,6.00746186 41.6832798,6.00167495 C39.4816797,5.71043079 37.3135192,5.56481999 35.1788014,5.56481999 C33.1164666,5.56481999 31.1895285,5.70072359 29.397987,5.97253078 L29.3979853,5.97251984 C28.8631281,6.05366674 28.3637581,5.68586185 28.2826112,5.15100461 C28.2752334,5.10237583 28.2715287,5.05326042 28.2715287,5.00407515 L28.2715287,5.00407515 C28.2715287,4.31355635 28.7716526,3.72465247 29.4530537,3.61281035 Z" id="Rectangle-27-Copy-10" transform="translate(35.546529, 4.563510) scale(-1, 1) rotate(20.000000) translate(-35.546529, -4.563510) "></path>
                                            </g>
                                        </g>
                                    </g>
                                    <g id="Group-40" transform="translate(70.000000, 50.000000)">
                                        <ellipse id="Oval-5" fill="#FFD7C0" transform="translate(8.000000, 10.500000) rotate(16.000000) translate(-8.000000, -10.500000) " cx="8" cy="10.5" rx="5.33333333" ry="8.67391304"></ellipse>
                                        <path d="M9.12282757,13.0108696 C10.6339387,13.6956522 12.1450498,9.90652174 12.1450498,8.35434783 C12.1450498,6.80217391 11.4685023,5.25 10.6339387,5.25 C9.79937506,5.25 9.12282757,5.94493193 9.12282757,6.80217391 C9.12282757,7.0875195 9.87037652,8.21230015 9.77777778,9.13043478 C9.59218919,10.970582 8.57651277,12.7632988 9.12282757,13.0108696 Z" id="Oval-6" fill="#FFCBAE"></path>
                                    </g>
                                    <g id="Group-4" transform="translate(14.000000, 51.000000)">
                                        <ellipse id="Oval-5-Copy" fill="#FFD7C0" transform="translate(8.399522, 9.805282) rotate(-16.000000) translate(-8.399522, -9.805282) " cx="8.39952211" cy="9.80528204" rx="5.29411765" ry="8.63636364"></ellipse>
                                        <path d="M4.76163031,12.0454545 C6.26163031,12.7272727 7.76163031,8.95454545 7.76163031,7.40909091 C7.76163031,5.86363636 7.09005743,4.31818182 6.26163031,4.31818182 C5.43320318,4.31818182 4.76163031,5.01010539 4.76163031,5.86363636 C4.76163031,6.14774669 5.50368257,7.26765816 5.41176471,8.18181818 C5.22754074,10.0139994 4.21933252,11.7989556 4.76163031,12.0454545 Z" id="Oval-6-Copy" fill="#FFCBAE" transform="translate(6.182371, 8.222597) scale(-1, 1) translate(-6.182371, -8.222597) "></path>
                                    </g>
                                </g>
                            </g>
                            <g id="Group-41" transform="translate(1.000000, 2.000000)">
                                <rect id="Rectangle-87-Copy" fill="#00B5FF" x="0" y="26.1015761" width="27.7931034" height="7.2195122" rx="3.6097561"></rect>
                                <path d="M37.0072795,33.2055876 L60.2575485,33.2055876 C62.0019601,33.2055876 63.416085,31.7914626 63.416085,30.047051 L63.416085,30.047051 C63.416085,28.3026394 62.0019601,26.8885144 60.2575485,26.8885144 L36.9884288,26.8885144 C35.2492072,26.8885144 33.8392895,28.2984321 33.8392895,30.0376538 C33.8392895,30.0407862 33.8392942,30.0439186 33.8393035,30.047051 L33.8393035,30.047051 C33.8445135,31.7929852 35.2613376,33.2055876 37.0072795,33.2055876 Z" id="Path-22" fill="#0079AE"></path>
                                <g id="Group-51-Copy-3" transform="translate(23.071257, 26.888514)" fill="#00B5FF">
                                    <path d="M3.17740137,6.31707317 C1.43145944,6.31707317 0.0146353885,4.90447074 0.00942536155,3.15853659 C0.00941601413,3.15540417 0.00941134041,3.15227174 0.00941134041,3.14913931 C0.00941134041,1.40991769 1.41932903,-1.24599382e-16 3.15855065,-4.4408921e-16 L26.4276703,1.77635684e-15 C28.1720819,1.45591363e-15 29.5862069,1.414125 29.5862069,3.15853659 C29.5862069,4.90294817 28.1720819,6.31707317 26.4276703,6.31707317 L3.17740137,6.31707317 Z M22.3625616,4.33170732 C22.829419,4.33170732 23.2078818,3.96807517 23.2078818,3.5195122 C23.2078818,3.07094922 22.829419,2.70731707 22.3625616,2.70731707 C21.8957041,2.70731707 21.5172414,3.07094922 21.5172414,3.5195122 C21.5172414,3.96807517 21.8957041,4.33170732 22.3625616,4.33170732 Z M25.9487685,4.33170732 C26.4156259,4.33170732 26.7940887,3.96807517 26.7940887,3.5195122 C26.7940887,3.07094922 26.4156259,2.70731707 25.9487685,2.70731707 C25.481911,2.70731707 25.1034483,3.07094922 25.1034483,3.5195122 C25.1034483,3.96807517 25.481911,4.33170732 25.9487685,4.33170732 Z M18.7763547,4.33170732 C19.2432121,4.33170732 19.6216749,3.96807517 19.6216749,3.5195122 C19.6216749,3.07094922 19.2432121,2.70731707 18.7763547,2.70731707 C18.3094972,2.70731707 17.9310345,3.07094922 17.9310345,3.5195122 C17.9310345,3.96807517 18.3094972,4.33170732 18.7763547,4.33170732 Z" id="Combined-Shape"></path>
                                </g>
                                <g id="Combined-Shape">
                                    <use fill="#00B5FF" fill-rule="evenodd" xlink:href="#path-11"></use>
                                    <use fill="black" fill-opacity="1" filter="url(#filter-12)" xlink:href="#path-11"></use>
                                </g>
                            </g>
                        </g>
                        <g id="Oval-2" transform="translate(89.000000, 36.000000) rotate(-30.000000) translate(-89.000000, -36.000000) ">
                            <use fill="#00C3FF" fill-rule="evenodd" xlink:href="#path-13"></use>
                            <use fill="black" fill-opacity="1" filter="url(#filter-14)" xlink:href="#path-13"></use>
                        </g>
                        <g id="Oval-2-Copy" transform="translate(101.000000, 50.000000) rotate(30.000000) translate(-101.000000, -50.000000) ">
                            <use fill="#00C3FF" fill-rule="evenodd" xlink:href="#path-15"></use>
                            <use fill="black" fill-opacity="1" filter="url(#filter-16)" xlink:href="#path-15"></use>
                        </g>
                    </g>
                </g>
            </g>
        </g>
    </g>
</svg>